HIERARCHY
ROOT Hips
{
	OFFSET 0.000000 71.427986 0.000000
	CHANNELS 6 Xposition Yposition Zposition Xrotation Yrotation Zrotation
	JOINT Pelvis
	{
		OFFSET 0.000000 0.000000 0.000000
		CHANNELS 3 Xrotation Yrotation Zrotation
		JOINT LeftUpLeg
		{
			OFFSET 6.797100 -2.508499 -1.318700
			CHANNELS 3 Xrotation Yrotation Zrotation
			JOINT LeftLeg
			{
				OFFSET 0.069008 -29.241863 0.690200
				CHANNELS 3 Xrotation Yrotation Zrotation
				JOINT LeftFoot
				{
					OFFSET -0.069008 -29.568123 -0.266800
					CHANNELS 3 Xrotation Yrotation Zrotation
					JOINT LeftToeBase
					{
						OFFSET 3.145500 -8.631000 16.059900
						CHANNELS 3 Xrotation Yrotation Zrotation
						End Site
						{
							OFFSET 0.000000 18.501587 0.000000
						}
					}
				}
			}
			JOINT Left_ShortSleeve
			{
				OFFSET 0.265923 -10.480953 1.153800
				CHANNELS 3 Xrotation Yrotation Zrotation
				End Site
				{
					OFFSET 1.725763 19.823879 0.000000
				}
			}
		}
		JOINT RightUpLeg
		{
			OFFSET -6.797100 -2.508499 -1.318700
			CHANNELS 3 Xrotation Yrotation Zrotation
			JOINT RightLeg
			{
				OFFSET -0.082453 -29.241932 0.688000
				CHANNELS 3 Xrotation Yrotation Zrotation
				JOINT RightFoot
				{
					OFFSET 0.082453 -29.568058 -0.264600
					CHANNELS 3 Xrotation Yrotation Zrotation
					JOINT RightToeBase
					{
						OFFSET -3.115300 -8.682800 16.113400
						CHANNELS 3 Xrotation Yrotation Zrotation
						End Site
						{
							OFFSET 0.000000 18.567114 0.000000
						}
					}
				}
			}
			JOINT Right_ShortSleeve
			{
				OFFSET -0.265923 -10.480953 1.153800
				CHANNELS 3 Xrotation Yrotation Zrotation
				End Site
				{
					OFFSET -1.725766 19.823910 0.000000
				}
			}
		}
	}
	JOINT Spine
	{
		OFFSET 0.000000 13.368103 0.470500
		CHANNELS 3 Xrotation Yrotation Zrotation
		JOINT Spine1
		{
			OFFSET 0.147000 13.837402 0.538800
			CHANNELS 3 Xrotation Yrotation Zrotation
			JOINT Spine2
			{
				OFFSET 0.168000 16.242897 -1.435500
				CHANNELS 3 Xrotation Yrotation Zrotation
				JOINT Neck
				{
					OFFSET 0.217200 18.631500 -1.679100
					CHANNELS 3 Xrotation Yrotation Zrotation
					JOINT Head
					{
						OFFSET 0.000000 6.599396 1.385900
						CHANNELS 3 Xrotation Yrotation Zrotation
						JOINT Hat
						{
							OFFSET -0.532200 27.220596 -10.096100
							CHANNELS 3 Xrotation Yrotation Zrotation
							End Site
							{
								OFFSET 0.000000 22.029861 0.000000
							}
						}
						JOINT HairD
						{
							OFFSET -10.777400 17.437393 -1.325900
							CHANNELS 3 Xrotation Yrotation Zrotation
							JOINT HairD1
							{
								OFFSET -3.290299 -11.051193 1.062200
								CHANNELS 3 Xrotation Yrotation Zrotation
								End Site
								{
									OFFSET 0.000000 11.579437 0.000000
								}
							}
						}
						JOINT HairB
						{
							OFFSET -10.777400 17.437393 1.467900
							CHANNELS 3 Xrotation Yrotation Zrotation
							JOINT HairB1
							{
								OFFSET -1.561200 -12.956299 3.590200
								CHANNELS 3 Xrotation Yrotation Zrotation
								End Site
								{
									OFFSET 0.000000 13.534866 0.000000
								}
							}
						}
						JOINT HairA
						{
							OFFSET 9.713100 17.437393 1.467900
							CHANNELS 3 Xrotation Yrotation Zrotation
							JOINT HairA1
							{
								OFFSET 1.561200 -12.956299 3.590200
								CHANNELS 3 Xrotation Yrotation Zrotation
								End Site
								{
									OFFSET 0.000000 13.534866 0.000000
								}
							}
						}
						JOINT HairC
						{
							OFFSET 9.713100 17.437393 -1.325900
							CHANNELS 3 Xrotation Yrotation Zrotation
							JOINT HairC1
							{
								OFFSET 3.290300 -11.051193 1.062200
								CHANNELS 3 Xrotation Yrotation Zrotation
								End Site
								{
									OFFSET 0.000000 11.579437 0.000000
								}
							}
						}
					}
				}
				JOINT LeftShoulder
				{
					OFFSET 5.101800 15.108002 -2.763700
					CHANNELS 3 Xrotation Yrotation Zrotation
					JOINT LeftArm
					{
						OFFSET 9.825497 2.506317 -1.597400
						CHANNELS 3 Xrotation Yrotation Zrotation
						JOINT LeftForeArm
						{
							OFFSET 21.966244 0.000000 0.000000
							CHANNELS 3 Xrotation Yrotation Zrotation
							JOINT LeftHand
							{
								OFFSET 33.879036 0.000000 0.000000
								CHANNELS 3 Xrotation Yrotation Zrotation
								JOINT LeftHandThumb1
								{
									OFFSET 6.715286 -2.359680 3.363841
									CHANNELS 3 Xrotation Yrotation Zrotation
									JOINT LeftHandThumb2
									{
										OFFSET 2.507072 -1.447464 1.447461
										CHANNELS 3 Xrotation Yrotation Zrotation
										JOINT LeftHandThumb3
										{
											OFFSET 2.898338 -1.673355 1.673357
											CHANNELS 3 Xrotation Yrotation Zrotation
											End Site
											{
												OFFSET -0.295959 3.727692 -0.131651
											}
										}
									}
								}
								JOINT LeftHandIndex1
								{
									OFFSET 14.190811 -0.254547 3.840278
									CHANNELS 3 Xrotation Yrotation Zrotation
									JOINT LeftHandIndex2
									{
										OFFSET 3.551727 0.000000 -0.000000
										CHANNELS 3 Xrotation Yrotation Zrotation
										JOINT LeftHandIndex3
										{
											OFFSET 2.894196 0.000000 0.000000
											CHANNELS 3 Xrotation Yrotation Zrotation
											End Site
											{
												OFFSET -1.000603 2.690872 0.366626
											}
										}
									}
								}
								JOINT LeftHandMiddle1
								{
									OFFSET 13.776489 0.000000 0.000000
									CHANNELS 3 Xrotation Yrotation Zrotation
									JOINT LeftHandMiddle2
									{
										OFFSET 3.438232 0.000000 0.000000
										CHANNELS 3 Xrotation Yrotation Zrotation
										JOINT LeftHandMiddle3
										{
											OFFSET 3.691551 0.000000 0.000000
											CHANNELS 3 Xrotation Yrotation Zrotation
											End Site
											{
												OFFSET -1.082298 3.499527 0.457670
											}
										}
									}
								}
								JOINT LeftHandRing1
								{
									OFFSET 13.966164 -0.268127 -3.067488
									CHANNELS 3 Xrotation Yrotation Zrotation
									JOINT LeftHandRing2
									{
										OFFSET 3.162567 0.000000 0.000000
										CHANNELS 3 Xrotation Yrotation Zrotation
										JOINT LeftHandRing3
										{
											OFFSET 3.324348 0.000000 0.000000
											CHANNELS 3 Xrotation Yrotation Zrotation
											End Site
											{
												OFFSET -0.861900 3.184998 0.405154
											}
										}
									}
								}
								JOINT LeftHandPinky1
								{
									OFFSET 13.131393 -0.168503 -5.746925
									CHANNELS 3 Xrotation Yrotation Zrotation
									JOINT LeftHandPinky2
									{
										OFFSET 2.849182 0.000000 0.000000
										CHANNELS 3 Xrotation Yrotation Zrotation
										JOINT LeftHandPinky3
										{
											OFFSET 2.805038 0.000000 0.000000
											CHANNELS 3 Xrotation Yrotation Zrotation
											End Site
											{
												OFFSET -0.882500 2.642609 0.325652
											}
										}
									}
								}
							}
							JOINT Left_Sleeve
							{
								OFFSET 6.592125 -0.646545 0.805568
								CHANNELS 3 Xrotation Yrotation Zrotation
								End Site
								{
									OFFSET -0.000179 20.275787 -0.000000
								}
							}
						}
					}
				}
				JOINT RightShoulder
				{
					OFFSET -5.731700 15.108002 -2.763700
					CHANNELS 3 Xrotation Yrotation Zrotation
					JOINT RightArm
					{
						OFFSET -9.825497 2.506317 -1.597400
						CHANNELS 3 Xrotation Yrotation Zrotation
						JOINT RightForeArm
						{
							OFFSET -21.966242 0.000000 0.000000
							CHANNELS 3 Xrotation Yrotation Zrotation
							JOINT RightHand
							{
								OFFSET -33.879032 0.000000 0.000000
								CHANNELS 3 Xrotation Yrotation Zrotation
								JOINT RightHandThumb1
								{
									OFFSET -6.715286 -2.359680 3.363841
									CHANNELS 3 Xrotation Yrotation Zrotation
									JOINT RightHandThumb2
									{
										OFFSET -2.507072 -1.447464 1.447461
										CHANNELS 3 Xrotation Yrotation Zrotation
										JOINT RightHandThumb3
										{
											OFFSET -2.898338 -1.673355 1.673357
											CHANNELS 3 Xrotation Yrotation Zrotation
											End Site
											{
												OFFSET 0.295959 3.727692 -0.131651
											}
										}
									}
								}
								JOINT RightHandIndex1
								{
									OFFSET -14.190811 -0.254547 3.840278
									CHANNELS 3 Xrotation Yrotation Zrotation
									JOINT RightHandIndex2
									{
										OFFSET -3.551727 0.000000 -0.000000
										CHANNELS 3 Xrotation Yrotation Zrotation
										JOINT RightHandIndex3
										{
											OFFSET -2.894196 0.000000 0.000000
											CHANNELS 3 Xrotation Yrotation Zrotation
											End Site
											{
												OFFSET 1.000603 2.690872 0.366626
											}
										}
									}
								}
								JOINT RightHandMiddle1
								{
									OFFSET -13.776489 0.000000 0.000000
									CHANNELS 3 Xrotation Yrotation Zrotation
									JOINT RightHandMiddle2
									{
										OFFSET -3.438232 0.000000 0.000000
										CHANNELS 3 Xrotation Yrotation Zrotation
										JOINT RightHandMiddle3
										{
											OFFSET -3.691551 0.000000 0.000000
											CHANNELS 3 Xrotation Yrotation Zrotation
											End Site
											{
												OFFSET 1.082298 3.499527 0.457670
											}
										}
									}
								}
								JOINT RightHandRing1
								{
									OFFSET -13.966164 -0.268127 -3.067488
									CHANNELS 3 Xrotation Yrotation Zrotation
									JOINT RightHandRing2
									{
										OFFSET -3.162567 0.000000 0.000000
										CHANNELS 3 Xrotation Yrotation Zrotation
										JOINT RightHandRing3
										{
											OFFSET -3.324348 0.000000 0.000000
											CHANNELS 3 Xrotation Yrotation Zrotation
											End Site
											{
												OFFSET 0.861900 3.184998 0.405154
											}
										}
									}
								}
								JOINT RightHandPinky1
								{
									OFFSET -13.131393 -0.168503 -5.746925
									CHANNELS 3 Xrotation Yrotation Zrotation
									JOINT RightHandPinky2
									{
										OFFSET -2.849182 0.000000 0.000000
										CHANNELS 3 Xrotation Yrotation Zrotation
										JOINT RightHandPinky3
										{
											OFFSET -2.805038 0.000000 0.000000
											CHANNELS 3 Xrotation Yrotation Zrotation
											End Site
											{
												OFFSET 0.882500 2.642609 0.325652
											}
										}
									}
								}
							}
							JOINT Right_Sleeve
							{
								OFFSET -6.592125 -0.646545 0.805568
								CHANNELS 3 Xrotation Yrotation Zrotation
								End Site
								{
									OFFSET 0.000179 20.275787 -0.000000
								}
							}
						}
					}
				}
				JOINT Bind_Right_JacketString
				{
					OFFSET -3.534800 11.969597 7.200700
					CHANNELS 3 Xrotation Yrotation Zrotation
					JOINT Bind_Right_JacketString1
					{
						OFFSET -0.319900 -6.102600 2.794100
						CHANNELS 3 Xrotation Yrotation Zrotation
						End Site
						{
							OFFSET 0.000000 6.719452 0.000000
						}
					}
				}
				JOINT Bind_Left_JacketString
				{
					OFFSET 2.904800 11.969597 7.200700
					CHANNELS 3 Xrotation Yrotation Zrotation
					JOINT Bind_Left_JacketString1
					{
						OFFSET 0.364800 -5.904503 3.186800
						CHANNELS 3 Xrotation Yrotation Zrotation
						End Site
						{
							OFFSET 0.000000 6.719513 0.000000
						}
					}
				}
				JOINT HairE
				{
					OFFSET 5.915200 17.612701 -11.592200
					CHANNELS 3 Xrotation Yrotation Zrotation
					JOINT HairE1
					{
						OFFSET 0.289200 -7.171898 -1.284500
						CHANNELS 3 Xrotation Yrotation Zrotation
						End Site
						{
							OFFSET 0.000000 7.291756 0.000000
						}
					}
				}
				JOINT HairF
				{
					OFFSET -0.864800 17.612701 -11.592200
					CHANNELS 3 Xrotation Yrotation Zrotation
					JOINT HairF1
					{
						OFFSET 0.000000 -14.087097 -2.127501
						CHANNELS 3 Xrotation Yrotation Zrotation
						End Site
						{
							OFFSET 0.000000 14.246841 0.000000
						}
					}
				}
				JOINT HairG
				{
					OFFSET -8.087700 17.612701 -11.592200
					CHANNELS 3 Xrotation Yrotation Zrotation
					JOINT HairG1
					{
						OFFSET -0.293600 -6.081398 -0.910100
						CHANNELS 3 Xrotation Yrotation Zrotation
						End Site
						{
							OFFSET 0.000000 6.156120 0.000000
						}
					}
				}
			}
		}
	}
	JOINT Pouch
	{
		OFFSET 0.000000 4.394501 10.847300
		CHANNELS 3 Xrotation Yrotation Zrotation
		End Site
		{
			OFFSET 0.000000 21.880577 0.000000
		}
	}
	JOINT Bag
	{
		OFFSET -13.229000 4.813004 -0.593300
		CHANNELS 3 Xrotation Yrotation Zrotation
		End Site
		{
			OFFSET 0.000000 21.880577 0.000000
		}
	}
	JOINT OccupyGuyFacialAnim_Joint
	{
		OFFSET 1.000000 -70.206398 -1.655000
		CHANNELS 3 Xrotation Yrotation Zrotation
		End Site
		{
			OFFSET 0.000000 21.880577 0.000000
		}
	}
}
MOTION
Frames: 4
Frame Time: 0.033333
0.083419 65.428093 1.960480 5.449712 2.966781 -3.413136 -0.000000 -0.000000 0.000000 -41.441319 6.180876 -1.468770 99.884727 14.229430 3.981356 -12.998389 -0.974543 5.824724 -0.000003 0.000001 0.000001 0.000002 0.000001 -0.000001 -18.143216 -5.602750 4.637786 50.810648 -0.272350 -1.569682 -31.076473 0.338488 -1.280003 0.000000 0.000000 -0.000000 -0.000001 0.000000 -0.000000 4.917348 1.322467 1.787116 9.857120 2.800248 1.722123 9.857128 2.800251 1.722122 -7.496576 -3.144980 -0.434787 -14.101446 -7.360290 -5.253900 0.000000 0.000000 0.000000 0.000000 0.000000 0.000000 0.000000 0.000000 0.000000 0.000000 0.000000 0.000000 0.000000 0.000000 -0.000000 0.000000 0.000000 0.000000 0.000000 0.000000 -0.000000 0.000000 0.000000 0.000000 0.000000 0.000000 0.000000 1.088522 -1.226463 -9.109245 21.951234 16.129922 -69.744612 5.202058 -103.989876 -6.123193 11.818465 -20.243509 2.840491 -3.691973 -7.086352 -6.633081 5.370500 13.667886 2.734611 0.000001 0.000004 -0.000001 -4.473747 -5.484352 -78.092059 -6.119749 -4.169274 -86.100805 0.000004 -0.000000 -0.000004 -4.806279 -3.746000 -81.576740 -5.132298 -5.371514 -79.877744 -0.000002 0.000003 -0.000001 -3.655234 4.571894 -85.638838 -3.069034 -4.302886 -82.602955 -0.000002 0.000001 -0.000001 -3.272581 10.937583 -91.302684 -1.692327 -6.213543 -92.125926 -0.000000 0.000000 -0.000001 0.000000 0.000001 0.000001 0.776470 6.054089 9.529805 5.506728 -10.523611 55.529298 -70.896578 86.710549 75.613596 -0.540991 5.793822 2.436024 1.190053 2.334164 7.237157 4.250742 -11.101299 -2.570829 -0.000001 -0.000001 -0.000002 3.425660 2.972075 72.847021 -5.581837 2.947814 92.129649 -0.000000 0.000002 -0.000001 -2.180788 2.047338 78.118854 -4.735111 4.314507 85.933171 0.000001 0.000004 -0.000002 -3.529998 -3.130859 85.505451 -4.835729 5.681263 88.623426 0.000000 -0.000002 -0.000002 -4.108856 -7.839712 98.143398 -5.436739 9.326568 98.221563 0.000000 0.000003 0.000003 0.000003 0.000002 0.000000 0.000000 0.000000 0.000000 0.000002 0.000000 0.000000 0.000000 0.000000 0.000000 0.000000 0.000000 0.000000 0.000000 0.000000 0.000000 0.000002 0.000000 0.000000 0.000000 0.000000 0.000000 0.000000 0.000000 0.000000 0.000000 0.000000 0.000000 0.000002 0.000000 0.000000 -0.000000 -0.000000 0.000000 -0.000000 -0.000000 0.000000 -0.000000 -0.000000 0.000000 
0.407749 67.003128 13.847102 5.416314 2.360162 -1.983177 0.000001 0.000000 -0.000000 -47.966646 3.249057 -0.913050 88.268304 9.464094 2.100530 -17.172241 1.352927 -9.233536 -0.000002 0.000000 -0.000000 0.000003 -0.000001 0.000001 1.408098 -7.288643 3.374934 33.921933 3.611864 -2.418885 -27.834032 0.456880 -1.347430 0.000000 0.000000 0.000000 0.000001 -0.000001 -0.000000 4.512417 2.519307 0.997682 9.061624 5.074900 0.771867 9.061609 5.074897 0.771868 -7.646017 -4.380023 -1.097950 -11.775125 -11.653865 -4.908281 0.000000 0.000000 0.000000 0.000000 0.000000 0.000000 0.000000 0.000000 0.000000 0.000000 0.000000 0.000001 0.000000 0.000000 0.000000 0.000000 0.000000 0.000001 0.000000 0.000000 0.000000 0.000000 0.000000 0.000000 0.000000 0.000000 0.000000 1.148257 -0.358145 -8.568959 23.855971 18.056761 -67.164385 -14.069950 -97.633258 -27.270656 14.144745 -20.169895 3.022586 -3.691972 -7.086354 -6.633081 5.370498 13.667888 2.734606 -0.000001 -0.000001 -0.000001 -4.328171 -5.451807 -76.586829 -5.938526 -4.154510 -84.599857 0.000000 -0.000000 -0.000002 -4.661643 -3.724927 -80.075697 -4.971521 -5.340695 -78.372808 0.000001 0.000002 0.000001 -3.550248 4.583279 -84.152186 -2.978653 -4.289955 -81.100177 -0.000001 0.000003 -0.000004 -3.190875 10.936778 -89.821612 -1.660175 -6.214279 -90.624022 0.000000 -0.000003 0.000002 0.000000 -0.000001 -0.000001 0.979933 7.617217 8.325406 -0.518871 -6.993000 54.863320 -115.325121 85.374154 118.291814 -0.961718 7.069537 2.095928 1.236776 2.203162 7.223153 4.506521 -11.681308 -2.613454 0.000003 -0.000001 0.000002 3.382984 3.097044 73.632629 -5.661122 2.944564 92.924587 -0.000000 -0.000002 -0.000002 -2.237326 2.094075 78.911921 -4.805582 4.317716 86.730179 0.000000 -0.000002 -0.000001 -3.606532 -3.121381 86.291900 -4.905181 5.686810 89.422005 -0.000001 -0.000003 -0.000005 -4.195273 -7.850591 98.921281 -5.497567 9.317581 99.023830 0.000001 0.000005 -0.000001 0.000001 0.000001 0.000000 -0.000001 0.000001 0.000000 -0.000001 0.000001 -0.000000 -0.000001 0.000001 0.000000 -0.000001 0.000001 0.000000 -0.000001 0.000001 0.000000 -0.000001 0.000001 -0.000000 -0.000001 0.000001 0.000000 -0.000001 0.000001 0.000000 -0.000001 0.000001 0.000000 -0.000001 0.000001 -0.000000 0.000001 0.000000 -0.000000 0.000001 0.000000 -0.000000 0.000001 0.000000 -0.000000 
0.692358 69.170235 25.434273 5.078547 3.303171 -0.820806 0.000000 -0.000000 0.000000 -45.768725 1.753084 -2.916378 64.813318 10.419453 -0.843957 -16.343237 0.093140 -1.184494 0.000001 0.000000 0.000000 -0.000001 0.000000 -0.000000 16.186473 -10.789836 1.443463 20.643574 12.023456 -1.276407 -9.342429 -0.501422 -2.178047 -0.000002 -0.000000 0.000000 0.000001 -0.000001 -0.000000 4.069926 3.499328 0.140133 8.175030 7.083294 -0.193793 8.175031 7.083301 -0.193794 -6.633241 -6.205877 -0.547994 -10.368915 -15.913055 -5.044619 0.000001 -0.000000 -0.000000 0.000001 -0.000000 -0.000000 0.000001 -0.000000 -0.000000 0.000001 -0.000000 -0.000000 -0.000000 -0.000000 -0.000000 0.000001 -0.000000 -0.000000 -0.000000 -0.000000 -0.000000 0.000001 -0.000000 -0.000000 0.000001 -0.000000 -0.000000 1.200655 0.640303 -7.870021 25.353047 18.639696 -63.215621 -82.355013 -95.358368 -96.942343 15.100332 -20.248360 3.340047 -3.691976 -7.086358 -6.633078 5.370499 13.667889 2.734605 0.000000 -0.000000 0.000002 -3.984957 -5.358924 -72.998180 -5.508275 -4.100297 -81.021220 0.000000 0.000002 -0.000002 -4.318416 -3.653905 -76.496876 -4.591689 -5.250426 -74.785025 0.000006 0.000004 -0.000004 -3.302660 4.616319 -80.606853 -2.764615 -4.249591 -77.516903 0.000000 0.000000 -0.000001 -2.996235 10.943257 -86.289789 -1.583380 -6.212691 -87.042592 -0.000001 -0.000001 0.000001 0.000000 -0.000002 0.000002 0.988025 8.490653 8.460607 -1.710907 -6.812161 54.891191 -130.844896 80.036109 133.016322 -4.998951 12.327220 3.553537 1.351083 1.882529 7.189421 5.131737 -13.102930 -2.706197 -0.000001 0.000000 -0.000001 3.271186 3.400442 75.557096 -5.855033 2.931450 94.869989 0.000001 0.000001 -0.000001 -2.376403 2.205762 80.854126 -4.979243 4.324743 88.680676 0.000001 0.000002 -0.000001 -3.791260 -3.112568 88.218245 -5.072883 5.685693 91.376607 -0.000001 -0.000002 0.000001 -4.405511 -7.884963 100.826235 -5.645966 9.291813 100.987304 0.000001 0.000002 -0.000006 -0.000001 -0.000000 0.000001 0.000002 0.000001 -0.000001 0.000002 -0.000000 0.000000 0.000002 0.000001 -0.000001 0.000002 0.000001 -0.000001 0.000002 0.000001 -0.000001 0.000002 -0.000000 -0.000000 0.000002 0.000001 -0.000001 0.000002 0.000001 -0.000001 0.000002 0.000001 -0.000001 0.000002 -0.000000 -0.000000 0.000000 -0.000000 0.000000 0.000000 -0.000000 0.000000 0.000000 -0.000000 0.000000 
0.973559 70.705406 37.598423 5.137179 5.620208 0.404074 -0.000000 -0.000001 0.000000 -38.154465 -1.076051 -6.261988 34.024369 9.222425 -1.050052 -14.498557 0.329311 -1.707510 0.000001 -0.000000 -0.000001 0.000003 0.000000 -0.000000 22.285179 -14.730578 -0.338424 14.303142 15.385604 -2.778066 21.621223 2.176625 15.935675 -0.000002 0.000001 -0.000000 0.000000 0.000001 -0.000000 3.458187 3.993104 -0.594757 6.972619 8.293557 -1.310269 6.972620 8.293557 -1.310268 -5.588728 -7.324555 -0.600849 -6.795818 -19.634210 -3.204423 0.000000 0.000000 0.000000 0.000000 0.000000 0.000000 0.000000 0.000000 -0.000000 0.000000 0.000000 0.000000 -0.000001 0.000000 0.000000 0.000000 0.000000 0.000000 -0.000001 0.000000 0.000000 0.000000 0.000000 0.000000 0.000000 0.000000 0.000000 1.225892 1.615388 -7.165139 26.553872 18.461475 -58.909890 -120.438297 -99.660656 -135.964751 15.039392 -20.409643 3.617813 -3.691975 -7.086352 -6.633081 5.370498 13.667893 2.734606 -0.000003 -0.000000 -0.000001 -3.583981 -5.220316 -68.716430 -5.000359 -4.000806 -76.751123 -0.000001 0.000001 -0.000002 -3.915588 -3.541330 -72.226320 -4.146869 -5.112001 -70.504587 0.000004 -0.000003 0.000000 -3.010538 4.675641 -76.375134 -2.512998 -4.184104 -73.240699 -0.000001 0.000002 0.000002 -2.764964 10.966425 -82.074087 -1.491954 -6.204636 -82.768062 -0.000000 0.000000 0.000003 -0.000000 -0.000000 0.000000 0.914235 7.838626 8.834371 -2.687175 -5.968846 54.418620 -139.031697 74.999644 140.944751 -8.500353 17.514477 7.744822 1.494340 1.480280 7.148083 5.914408 -14.888197 -2.799118 -0.000001 -0.000000 0.000003 3.116662 3.775111 77.971418 -6.097248 2.905534 97.307957 -0.000000 -0.000000 0.000000 -2.551673 2.340130 83.289601 -5.197131 4.324855 91.125242 -0.000001 -0.000000 0.000001 -4.023036 -3.110367 90.633195 -5.283012 5.675812 93.826302 -0.000000 0.000001 0.000001 -4.666026 -7.943437 103.214458 -5.830616 9.252213 103.447839 -0.000000 0.000000 0.000001 -0.000001 -0.000001 -0.000002 -0.000001 -0.000000 -0.000000 0.000001 -0.000002 -0.000000 -0.000001 -0.000000 0.000000 -0.000001 -0.000000 0.000000 -0.000001 -0.000000 -0.000000 0.000001 -0.000002 -0.000000 -0.000001 -0.000000 0.000000 -0.000001 -0.000000 0.000000 -0.000001 -0.000000 -0.000000 0.000001 -0.000002 -0.000000 -0.000000 -0.000001 0.000000 -0.000000 -0.000001 0.000000 -0.000000 -0.000001 0.000000 
